<svg width="120" height="120" viewBox="0 0 120 120" fill="none" xmlns="http://www.w3.org/2000/svg">
<path fill-rule="evenodd" clip-rule="evenodd" d="M3.57655 58.2392C5.59909 58.1912 7.27746 59.7958 7.3253 61.8232C7.36462 63.4894 7.48479 65.1701 7.68933 66.861C7.89388 68.5519 8.17788 70.2126 8.53697 71.84C8.97389 73.8201 7.72673 75.7803 5.75137 76.2183C3.77601 76.6562 1.82047 75.4061 1.38356 73.426C0.973374 71.5671 0.64941 69.6721 0.416299 67.745C0.183188 65.8179 0.0459565 63.9002 0.00104488 61.9969C-0.0467939 59.9695 1.55401 58.2871 3.57655 58.2392Z" fill="black"/>
<path fill-rule="evenodd" clip-rule="evenodd" d="M97.6741 100.793C99.4889 103.231 98.9884 106.682 96.5562 108.501C90.2012 113.254 82.9633 116.719 75.2809 118.687C72.3407 119.44 69.3482 117.661 68.597 114.714C67.8458 111.767 69.6204 108.767 72.5606 108.014C78.8512 106.403 84.7805 103.564 89.9842 99.6722C92.4165 97.853 95.8593 98.3547 97.6741 100.793ZM27.5637 104.517C29.1112 101.9 32.4819 101.037 35.0923 102.588C37.8273 104.213 40.7631 105.598 43.8836 106.704C47.0041 107.81 50.1561 108.582 53.3024 109.041C56.3054 109.479 58.3856 112.274 57.9486 115.285C57.5116 118.295 54.7229 120.38 51.7199 119.942C47.8689 119.38 44.0199 118.436 40.2207 117.09C36.4215 115.744 32.8359 114.053 29.4883 112.064C26.8779 110.512 26.0162 107.134 27.5637 104.517Z" fill="black"/>
<path fill-rule="evenodd" clip-rule="evenodd" d="M96.7469 20.5099C99.928 18.0035 104.534 18.5566 107.034 21.7453C109.513 24.9057 111.718 28.3492 113.6 32.0561C115.483 35.7629 116.963 39.5764 118.054 43.4447C119.155 47.3475 116.891 51.406 112.997 52.5095C109.104 53.613 105.055 51.3436 103.954 47.4408C103.121 44.4884 101.989 41.5685 100.542 38.7191C99.0951 35.8696 97.4059 33.234 95.5144 30.8219C93.014 27.6332 93.5658 23.0163 96.7469 20.5099ZM113.543 59.5768C117.561 60.0587 120.428 63.714 119.947 67.7411C118.977 75.8713 116.42 83.7474 112.433 90.8936C110.458 94.4333 105.994 95.6978 102.462 93.7179C98.931 91.7379 97.6695 87.2633 99.6448 83.7235C102.697 78.2529 104.656 72.2199 105.399 65.996C105.879 61.9689 109.526 59.0949 113.543 59.5768Z" fill="black"/>
<path fill-rule="evenodd" clip-rule="evenodd" d="M35.8369 4.87958C43.4081 1.73242 51.7027 0 60.378 0C69.0532 0 77.3479 1.73242 84.9191 4.87958C89.5911 6.82161 91.8079 12.1924 89.8705 16.8755C87.9331 21.5587 82.5752 23.7808 77.9032 21.8388C72.517 19.5999 66.6035 18.3596 60.378 18.3596C54.1525 18.3596 48.239 19.5999 42.8528 21.8388C38.1808 23.7808 32.8229 21.5587 30.8855 16.8755C28.9481 12.1924 31.1649 6.82161 35.8369 4.87958Z" fill="black"/>
<path fill-rule="evenodd" clip-rule="evenodd" d="M11.355 31.2655C13.1565 32.1882 13.8707 34.4001 12.9502 36.206C11.4348 39.1789 10.2006 42.317 9.28145 45.5846C8.73243 47.5364 6.70886 48.6725 4.76168 48.1222C2.81449 47.5719 1.68105 45.5435 2.23007 43.5916C3.28171 39.8529 4.69365 36.2635 6.42622 32.8646C7.34674 31.0587 9.55341 30.3428 11.355 31.2655Z" fill="black"/>
<path fill-rule="evenodd" clip-rule="evenodd" d="M9.23914 85.0937C11.0024 84.0994 13.2359 84.7261 14.2278 86.4935C15.0431 87.9461 15.9365 89.3734 16.9092 90.77C17.8819 92.1667 18.9106 93.4992 19.99 94.767C21.3033 96.3095 21.1205 98.6272 19.5816 99.9437C18.0427 101.26 15.7306 101.077 14.4172 99.5343C13.1843 98.0862 12.0105 96.5656 10.902 94.9739C9.79341 93.3821 8.77391 91.7536 7.84265 90.0943C6.85069 88.3269 7.47592 86.088 9.23914 85.0937Z" fill="black"/>
</svg>
